<svg xmlns="http://www.w3.org/2000/svg" width="147" height="64" viewBox="0 0 147 64" version="1.1"><path d="M 8 33 L 8 47 15.500 47 C 22.333 47, 23 46.822, 23 45 C 23 43.242, 22.333 43, 17.500 43 L 12 43 12 39 L 12 35 17 35 C 21.333 35, 22 34.733, 22 33 C 22 31.267, 21.333 31, 17 31 L 12 31 12 27 L 12 23 17 23 C 21.333 23, 22 22.733, 22 21 C 22 19.190, 21.333 19, 15 19 L 8 19 8 33 M 33 19.706 C 30.170 20.741, 27 24.350, 27 26.538 C 27 29.344, 30.837 33.172, 35.972 35.487 C 38.937 36.825, 40 37.895, 40 39.545 C 40 40.778, 39.288 42.059, 38.418 42.393 C 35.971 43.332, 31.076 43.111, 28.934 41.965 C 27.271 41.074, 27 41.267, 27 43.340 C 27 45.239, 27.662 45.882, 30.125 46.375 C 37.193 47.789, 43.256 45.920, 44.519 41.939 C 45.819 37.846, 44.153 35.103, 38.393 31.853 C 32.258 28.390, 31.113 26.774, 33.099 24.380 C 34.088 23.189, 35.632 22.902, 39.211 23.246 C 43.277 23.637, 44 23.443, 44 21.960 C 44 21, 43.288 19.941, 42.418 19.607 C 40.528 18.882, 35.100 18.939, 33 19.706 M 47 21 C 47 22.667, 47.667 23, 51 23 L 55 23 55 35 L 55 47 57.500 47 L 60 47 60 35 L 60 23 64 23 C 67.333 23, 68 22.667, 68 21 C 68 19.127, 67.333 19, 57.500 19 C 47.667 19, 47 19.127, 47 21 M 76.270 20.483 C 69.532 23.412, 66.788 33.860, 70.960 40.701 C 75.509 48.163, 85.764 49.107, 91.716 42.613 C 94.605 39.460, 95 38.361, 95 33.465 C 95 26.568, 93.111 22.755, 88.643 20.635 C 84.472 18.656, 80.582 18.608, 76.270 20.483 M 101 33 C 101 46.333, 101.095 47, 103 47 C 104.760 47, 105 46.333, 105 41.434 C 105 35.951, 105.041 35.872, 107.750 36.184 C 109.812 36.421, 111.347 37.814, 113.885 41.750 C 116.451 45.731, 117.861 47, 119.716 47 L 122.163 47 119.922 43.250 C 118.690 41.188, 116.544 38.263, 115.154 36.750 C 113.763 35.237, 113.160 34, 113.813 34 C 116.212 34, 119 30.007, 119 26.573 C 119 21.343, 115.400 19, 107.365 19 L 101 19 101 33 M 126 33 L 126 47 133.500 47 C 140.333 47, 141 46.822, 141 45 C 141 43.242, 140.333 43, 135.500 43 L 130 43 130 39 L 130 35 135 35 C 139.333 35, 140 34.733, 140 33 C 140 31.267, 139.333 31, 135 31 L 130 31 130 27 L 130 23 135 23 C 139.333 23, 140 22.733, 140 21 C 140 19.190, 139.333 19, 133 19 L 126 19 126 33 M 77.261 24.529 C 74.335 26.579, 72.897 32.044, 74.119 36.471 C 75.918 42.985, 82.564 45, 87.694 40.587 C 90.096 38.521, 90.500 37.428, 90.500 33 C 90.500 28.572, 90.096 27.479, 87.694 25.413 C 84.484 22.652, 80.432 22.309, 77.261 24.529 M 105 27.443 C 105 31.953, 105.035 32, 108.378 32 C 112.441 32, 114.257 30.102, 113.822 26.310 C 113.532 23.780, 113.077 23.469, 109.250 23.193 L 105 22.885 105 27.443" stroke="none" fill="#2a3044" fill-rule="evenodd"/><path d="M 0 32.006 L 0 64.013 73.750 63.756 L 147.500 63.500 147.764 31.750 L 148.028 -0 74.014 -0 L 0 0 0 32.006 M 0.446 32.500 C 0.447 50.100, 0.583 57.159, 0.749 48.187 C 0.914 39.215, 0.914 24.815, 0.748 16.187 C 0.581 7.559, 0.446 14.900, 0.446 32.500 M 8 33 L 8 47 15.500 47 C 22.333 47, 23 46.822, 23 45 C 23 43.242, 22.333 43, 17.500 43 L 12 43 12 39 L 12 35 17 35 C 21.333 35, 22 34.733, 22 33 C 22 31.267, 21.333 31, 17 31 L 12 31 12 27 L 12 23 17 23 C 21.333 23, 22 22.733, 22 21 C 22 19.190, 21.333 19, 15 19 L 8 19 8 33 M 33 19.706 C 30.170 20.741, 27 24.350, 27 26.538 C 27 29.344, 30.837 33.172, 35.972 35.487 C 38.937 36.825, 40 37.895, 40 39.545 C 40 40.778, 39.288 42.059, 38.418 42.393 C 35.971 43.332, 31.076 43.111, 28.934 41.965 C 27.271 41.074, 27 41.267, 27 43.340 C 27 45.239, 27.662 45.882, 30.125 46.375 C 37.193 47.789, 43.256 45.920, 44.519 41.939 C 45.819 37.846, 44.153 35.103, 38.393 31.853 C 32.258 28.390, 31.113 26.774, 33.099 24.380 C 34.088 23.189, 35.632 22.902, 39.211 23.246 C 43.277 23.637, 44 23.443, 44 21.960 C 44 21, 43.288 19.941, 42.418 19.607 C 40.528 18.882, 35.100 18.939, 33 19.706 M 47 21 C 47 22.667, 47.667 23, 51 23 L 55 23 55 35 L 55 47 57.500 47 L 60 47 60 35 L 60 23 64 23 C 67.333 23, 68 22.667, 68 21 C 68 19.127, 67.333 19, 57.500 19 C 47.667 19, 47 19.127, 47 21 M 76.270 20.483 C 69.532 23.412, 66.788 33.860, 70.960 40.701 C 75.509 48.163, 85.764 49.107, 91.716 42.613 C 94.605 39.460, 95 38.361, 95 33.465 C 95 26.568, 93.111 22.755, 88.643 20.635 C 84.472 18.656, 80.582 18.608, 76.270 20.483 M 101 33 C 101 46.333, 101.095 47, 103 47 C 104.760 47, 105 46.333, 105 41.434 C 105 35.951, 105.041 35.872, 107.750 36.184 C 109.812 36.421, 111.347 37.814, 113.885 41.750 C 116.451 45.731, 117.861 47, 119.716 47 L 122.163 47 119.922 43.250 C 118.690 41.188, 116.544 38.263, 115.154 36.750 C 113.763 35.237, 113.160 34, 113.813 34 C 116.212 34, 119 30.007, 119 26.573 C 119 21.343, 115.400 19, 107.365 19 L 101 19 101 33 M 126 33 L 126 47 133.500 47 C 140.333 47, 141 46.822, 141 45 C 141 43.242, 140.333 43, 135.500 43 L 130 43 130 39 L 130 35 135 35 C 139.333 35, 140 34.733, 140 33 C 140 31.267, 139.333 31, 135 31 L 130 31 130 27 L 130 23 135 23 C 139.333 23, 140 22.733, 140 21 C 140 19.190, 139.333 19, 133 19 L 126 19 126 33 M 77.261 24.529 C 74.335 26.579, 72.897 32.044, 74.119 36.471 C 75.918 42.985, 82.564 45, 87.694 40.587 C 90.096 38.521, 90.500 37.428, 90.500 33 C 90.500 28.572, 90.096 27.479, 87.694 25.413 C 84.484 22.652, 80.432 22.309, 77.261 24.529 M 105 27.443 C 105 31.953, 105.035 32, 108.378 32 C 112.441 32, 114.257 30.102, 113.822 26.310 C 113.532 23.780, 113.077 23.469, 109.250 23.193 L 105 22.885 105 27.443" stroke="none" fill="#fafaf8" fill-rule="evenodd"/></svg>